<svg width="32" height="32" viewBox="0 0 32 32" fill="none" xmlns="http://www.w3.org/2000/svg">
<path fill-rule="evenodd" clip-rule="evenodd" d="M28.6765 11.767C29.4063 12.4744 30.5853 12.4744 31.2702 11.767C32 11.0597 32 9.99299 31.2702 9.28562C30.574 8.57826 29.4063 8.57826 28.6765 9.28562C27.9804 9.99299 27.9804 11.0597 28.6765 11.767ZM20.9965 4.34527C21.7263 5.05264 22.9053 5.05264 23.5902 4.34527C24.32 3.6379 24.32 2.57124 23.5902 1.86387C22.894 1.1565 21.7263 1.1565 20.9965 1.86387C20.3116 2.57124 20.3116 3.62668 20.9965 4.34527ZM22.6919 17.5607C23.4218 18.2681 24.6007 18.2681 25.2856 17.5607C26.0154 16.8533 26.0154 15.7867 25.2856 15.0793C24.5895 14.3719 23.4218 14.3719 22.6919 15.0793C21.9958 15.7867 21.9958 16.8533 22.6919 17.5607ZM7.42175 20.8056L7.09614 22.1081C6.97263 22.6021 6.4786 22.9277 5.96211 22.8154C5.63649 22.7481 5.31088 22.7144 5.01895 22.7144C3.49193 22.7144 2.40281 23.7474 2.40281 25.5776V31.4386H0V20.7832H2.38035V21.9846C3.11018 20.9628 4.23298 20.5025 5.56912 20.5025C6.29895 20.5137 6.87158 20.6035 7.42175 20.8056ZM14.1586 22.9053V31.4498H11.7446V22.9053H10.0828C9.58877 22.9053 9.18456 22.5123 9.18456 22.0407V20.7944H11.7446V18.3018C11.7446 16.1684 12.8561 14.4618 15.4274 14.4618C16.7298 14.4618 17.6618 14.7874 18.4926 15.259L17.9986 17.2126C17.4372 16.8983 16.3256 16.64 15.5846 16.64C14.6526 16.64 14.1474 17.2239 14.1474 18.2905V20.7832H17.9088V22.894H14.1586V22.9053Z" fill="#ED1A5D"/>
</svg>
